<svg width="35" height="35" viewBox="0 0 35 35" fill="none" xmlns="http://www.w3.org/2000/svg">
<path d="M2.91602 24.7916V10.2083C2.91602 9.43474 3.22331 8.69288 3.77029 8.1459C4.31727 7.59892 5.05913 7.29163 5.83268 7.29163H29.166C29.9396 7.29163 30.6814 7.59892 31.2284 8.1459C31.7754 8.69288 32.0827 9.43474 32.0827 10.2083V24.7916C32.0827 25.5652 31.7754 26.307 31.2284 26.854C30.6814 27.401 29.9396 27.7083 29.166 27.7083H5.83268C5.05913 27.7083 4.31727 27.401 3.77029 26.854C3.22331 26.307 2.91602 25.5652 2.91602 24.7916Z" stroke="black" stroke-width="1.5" stroke-linecap="round" stroke-linejoin="round"/>
<path d="M26.9779 17.5146L26.9924 17.4985M8.01953 17.5146L8.03411 17.4985M17.4987 21.875C16.3384 21.875 15.2256 21.4141 14.4051 20.5936C13.5846 19.7731 13.1237 18.6603 13.1237 17.5C13.1237 16.3397 13.5846 15.2269 14.4051 14.4064C15.2256 13.5859 16.3384 13.125 17.4987 13.125C18.659 13.125 19.7718 13.5859 20.5923 14.4064C21.4128 15.2269 21.8737 16.3397 21.8737 17.5C21.8737 18.6603 21.4128 19.7731 20.5923 20.5936C19.7718 21.4141 18.659 21.875 17.4987 21.875Z" stroke="black" stroke-width="1.5" stroke-linecap="round" stroke-linejoin="round"/>
</svg>
