<svg width="30" height="32" viewBox="0 0 30 32" fill="none" xmlns="http://www.w3.org/2000/svg">
<path d="M10.301 1.53219C7.20616 2.60581 4.5372 4.64357 2.68612 7.34616C0.83504 10.0487 -0.100593 13.2737 0.0166517 16.5474C0.133896 19.821 1.29784 22.9708 3.33751 25.534C5.37719 28.0972 8.18508 29.9389 11.3488 30.7883C13.9136 31.4501 16.6009 31.4792 19.1794 30.873C21.5154 30.3483 23.675 29.226 25.4469 27.6159C27.291 25.8889 28.6296 23.692 29.3187 21.2613C30.0677 18.618 30.2009 15.8383 29.7083 13.1354H15.3052V19.1101H23.6465C23.4798 20.063 23.1226 20.9725 22.5962 21.7841C22.0698 22.5957 21.385 23.2928 20.583 23.8336C19.5644 24.5074 18.4162 24.9607 17.2121 25.1646C16.0044 25.3891 14.7657 25.3891 13.5581 25.1646C12.3341 24.9115 11.1762 24.4063 10.1582 23.6812C8.52272 22.5235 7.29471 20.8788 6.64939 18.9818C5.99316 17.0493 5.99316 14.9542 6.64939 13.0217C7.10874 11.6671 7.86811 10.4337 8.87082 9.41368C10.0183 8.22492 11.471 7.37518 13.0697 6.95771C14.6683 6.54023 16.351 6.57114 17.9332 7.04706C19.1692 7.42647 20.2995 8.08938 21.2339 8.98295C22.1744 8.04727 23.1133 7.10917 24.0506 6.16865C24.5346 5.6629 25.0621 5.18134 25.5388 4.66349C24.1125 3.33614 22.4382 2.3033 20.612 1.62415C17.2864 0.41661 13.6476 0.384158 10.301 1.53219Z" fill="white"/>
<path d="M10.3012 1.53215C13.6476 0.383333 17.2864 0.41493 20.6123 1.62168C22.4388 2.30545 24.1123 3.34326 25.5367 4.67555C25.0527 5.1934 24.5421 5.67737 24.0485 6.1807C23.1096 7.11799 22.1715 8.05206 21.2342 8.9829C20.2997 8.08934 19.1695 7.42642 17.9335 7.04701C16.3518 6.56943 14.6691 6.53673 13.0701 6.9525C11.471 7.36827 10.0174 8.21644 8.86867 9.40396C7.86596 10.424 7.10659 11.6574 6.64723 13.012L1.63086 9.12809C3.42642 5.56741 6.53531 2.84377 10.3012 1.53215Z" fill="#E33629"/>
<path d="M0.300056 12.9756C0.56968 11.6394 1.01731 10.3453 1.63098 9.12805L6.64735 13.0216C5.99112 14.9541 5.99112 17.0492 6.64735 18.9817C4.97604 20.2723 3.30391 21.5694 1.63098 22.8729C0.0947323 19.8149 -0.373797 16.3308 0.300056 12.9756Z" fill="#F8BD00"/>
<path d="M15.3058 13.1329H29.7088C30.2015 15.8358 30.0682 18.6155 29.3192 21.2588C28.6301 23.6895 27.2915 25.8864 25.4474 27.6134C23.8285 26.3502 22.2024 25.0967 20.5835 23.8336C21.3861 23.2922 22.0711 22.5943 22.5976 21.7818C23.124 20.9693 23.4809 20.0589 23.647 19.1052H15.3058C15.3033 17.116 15.3058 15.1245 15.3058 13.1329Z" fill="#587DBD"/>
<path d="M1.62891 22.8729C3.30184 21.5824 4.97396 20.2853 6.64528 18.9818C7.29189 20.8795 8.52165 22.5242 10.1589 23.6812C11.1801 24.4029 12.3405 24.904 13.5661 25.1525C14.7737 25.377 16.0124 25.377 17.2201 25.1525C18.4242 24.9486 19.5724 24.4953 20.5909 23.8215C22.2098 25.0847 23.836 26.3382 25.4549 27.6014C23.6833 29.2123 21.5236 30.3355 19.1874 30.8609C16.6088 31.4671 13.9216 31.438 11.3568 30.7762C9.32819 30.2346 7.43337 29.2798 5.79107 27.9716C4.05279 26.5915 2.63304 24.8523 1.62891 22.8729Z" fill="#319F43"/>
</svg>
