<svg width="60" height="60" viewBox="0 0 60 60" fill="none" xmlns="http://www.w3.org/2000/svg">
<path d="M30.0007 0.833496C13.9182 0.833496 0.833984 13.9177 0.833984 30.0002V42.0839C0.833984 45.0706 3.45023 47.5002 6.66732 47.5002H9.58398C10.3575 47.5002 11.0994 47.1929 11.6464 46.6459C12.1934 46.0989 12.5007 45.357 12.5007 44.5835V29.5831C12.5007 28.8095 12.1934 28.0677 11.6464 27.5207C11.0994 26.9737 10.3575 26.6664 9.58398 26.6664H6.93565C8.55732 15.3789 18.2698 6.66683 30.0007 6.66683C41.7315 6.66683 51.444 15.3789 53.0657 26.6664H50.4173C49.6438 26.6664 48.9019 26.9737 48.3549 27.5207C47.8079 28.0677 47.5007 28.8095 47.5007 29.5831V47.5002C47.5007 50.7172 44.8844 53.3335 41.6673 53.3335H35.834V50.4168H24.1673V59.1668H41.6673C48.1015 59.1668 53.334 53.9343 53.334 47.5002C56.5511 47.5002 59.1673 45.0706 59.1673 42.0839V30.0002C59.1673 13.9177 46.0832 0.833496 30.0007 0.833496Z" fill="#1C5356"/>
</svg>
