<svg width="63" height="52" viewBox="0 0 63 52" fill="none" xmlns="http://www.w3.org/2000/svg">
<path fill-rule="evenodd" clip-rule="evenodd" d="M25.504 0.479248H34.5807C39.9415 0.479248 44.1882 0.479248 47.5102 0.925498C50.9286 1.38633 53.6965 2.35466 55.8811 4.53633C58.5761 7.23425 59.4365 10.8451 59.7486 15.5322C61.4315 16.2701 62.7032 17.8363 62.8402 19.8197C62.8548 19.9976 62.8548 20.1872 62.8548 20.3622V31.638C62.8548 31.813 62.8548 32.0026 62.8432 32.1776C62.7032 34.1609 61.4315 35.7301 59.7486 36.4709C59.4365 41.1551 58.5761 44.7659 55.8811 47.4638C53.6965 49.6455 50.9286 50.6138 47.5102 51.0747C44.1852 51.5209 39.9415 51.5209 34.5807 51.5209H25.504C20.1432 51.5209 15.8965 51.5209 12.5744 51.0747C9.15607 50.6138 6.38815 49.6455 4.20357 47.4638C2.0219 45.2792 1.05357 42.5113 0.592734 39.093C0.146484 35.768 0.146484 31.5242 0.146484 26.1634V25.8368C0.146484 20.4759 0.146484 16.2292 0.592734 12.9072C1.05357 9.48883 2.0219 6.72091 4.20357 4.53633C6.38815 2.35466 9.15607 1.38633 12.5744 0.925498C15.8994 0.479248 20.1432 0.479248 25.504 0.479248ZM55.324 36.9376H49.6715C43.4152 36.9376 38.0602 32.1892 38.0602 26.0001C38.0602 19.8109 43.4152 15.0626 49.6686 15.0626H55.3211C54.9886 11.1513 54.239 9.08342 52.7836 7.63092C51.5498 6.39717 49.8582 5.65633 46.924 5.26258C43.9286 4.86008 39.9765 4.85425 34.4144 4.85425H25.6644C20.1023 4.85425 16.1532 4.86008 13.1519 5.26258C10.2207 5.65633 8.52899 6.39717 7.29523 7.63092C6.06148 8.86467 5.32065 10.5563 4.9269 13.4905C4.5244 16.4888 4.51857 20.438 4.51857 26.0001C4.51857 31.5622 4.5244 35.5143 4.9269 38.5126C5.32065 41.4438 6.06148 43.1355 7.29523 44.3693C8.52899 45.603 10.2207 46.3438 13.1548 46.7376C16.1532 47.1401 20.1023 47.1459 25.6644 47.1459H34.4144C39.9765 47.1459 43.9286 47.1401 46.9269 46.7376C49.8582 46.3438 51.5498 45.603 52.7836 44.3693C54.239 42.9168 54.9915 40.8517 55.324 36.9376ZM11.8132 14.3334C11.8132 13.7533 12.0436 13.1969 12.4539 12.7866C12.8641 12.3764 13.4205 12.1459 14.0007 12.1459H25.6673C26.2475 12.1459 26.8039 12.3764 27.2141 12.7866C27.6243 13.1969 27.8548 13.7533 27.8548 14.3334C27.8548 14.9136 27.6243 15.47 27.2141 15.8802C26.8039 16.2904 26.2475 16.5209 25.6673 16.5209H14.0007C13.4205 16.5209 12.8641 16.2904 12.4539 15.8802C12.0436 15.47 11.8132 14.9136 11.8132 14.3334ZM57.529 19.4376H49.6715C45.5182 19.4376 42.4352 22.5263 42.4352 26.0001C42.4352 29.4738 45.5182 32.5626 49.6686 32.5626H57.5961C58.1969 32.5247 58.4565 32.1192 58.4769 31.8742V20.1259C58.4565 19.8809 58.1969 19.4755 57.5961 19.4405L57.529 19.4376Z" fill="#1C5356"/>
</svg>
